<?xml version="1.0" encoding="utf-8"?>
<!-- Generator: Adobe Illustrator 25.0.0, SVG Export Plug-In . SVG Version: 6.00 Build 0)  -->
<svg version="1.1" id="Layer_1" xmlns="http://www.w3.org/2000/svg" xmlns:xlink="http://www.w3.org/1999/xlink" x="0px" y="0px"
	 viewBox="0 0 181 58" style="enable-background:new 0 0 181 58;" xml:space="preserve">
<style type="text/css">
	.st0{fill-rule:evenodd;clip-rule:evenodd;fill:#0099FF;}
	.st1{fill-rule:evenodd;clip-rule:evenodd;fill:#0561E2;}
	.st2{fill:#FFFFFF;}
</style>
<path class="st0" d="M28.9,46c-0.8,0-1.6,0-2.4-0.2c-2.2-0.3-4.3-1-6.2-2.2c-4.2-2.5-6.9-6.2-8-11.1c-0.2-1.1-0.4-2.2-0.4-3.3
	c0-4.4,1.4-8.3,4.4-11.6c2.6-2.9,5.7-4.6,9.5-5.3c1-0.2,2.1-0.3,3.1-0.3c0,1.7,0,3.4,0,5.1c0,0-0.1,0-0.1,0.1
	c-0.6,0.4-1.2,0.9-1.8,1.4c-1.3,1.1-2.6,2.2-3.7,3.6C21.9,24,21,26,20.8,28.4c-0.1,1.1,0.1,2.2,0.4,3.3c0.9,2.7,3.6,5.4,7.5,5.5
	c0.2,0,0.3,0,0.3,0.3c0,1.2,0,3.5,0,3.5s0,0.1,0,0.2C28.9,42.8,28.9,44.4,28.9,46z"/>
<path class="st1" d="M28.9,17.1c0,0,0-3.4,0-5.1c0.9,0,1.8,0.1,2.7,0.2c1.7,0.3,3.3,0.8,4.9,1.6c3.2,1.7,5.7,4,7.4,7.2
	c1,1.9,1.6,3.8,1.9,5.9c0.3,2.4,0.1,4.8-0.7,7.2c-0.8,2.7-2.2,5-4.2,7c-2.4,2.4-5.2,3.9-8.6,4.6c-1.1,0.2-2.3,0.4-3.4,0.3
	c0-1.6,0-3.2,0-4.9c0-0.1,0-0.2,0-0.2s0.1,0,0.1-0.1c1.8-1.2,3.4-2.6,4.9-4.2c0.9-1.1,1.8-2.2,2.3-3.5c0.8-1.9,1.1-3.8,0.7-5.8
	c-0.7-3.7-4-6.4-7.8-6.5c-0.2,0-0.2-0.2-0.2-0.2V17.1z"/>
<path class="st2" d="M67.8,34.3c0,0.9-0.2,1.8-0.4,2.7c-0.3,0.9-0.7,1.6-1.3,2.3c-0.6,0.7-1.3,1.2-2.2,1.6c-0.9,0.4-1.9,0.6-3,0.6
	c-1.8,0-3.4-0.4-4.5-1.3c-1.2-0.9-2-2.3-2.3-4.1l3.9-0.9c0.1,0.8,0.4,1.4,0.9,1.9c0.5,0.5,1.1,0.7,1.8,0.7c1.2,0,2-0.4,2.4-1.2
	c0.4-0.8,0.6-1.9,0.6-3.4V17.2h4.1V34.3z"/>
<path class="st2" d="M90.6,32.1c0,1.4-0.2,2.7-0.7,3.9c-0.5,1.2-1.1,2.1-2,2.9c-0.8,0.8-1.8,1.4-3,1.8c-1.1,0.4-2.4,0.6-3.7,0.6
	c-1.3,0-2.6-0.2-3.7-0.6c-1.1-0.4-2.1-1-3-1.8c-0.9-0.8-1.5-1.8-2-2.9c-0.5-1.1-0.7-2.4-0.7-3.9v-15H76V32c0,0.6,0.1,1.2,0.3,1.8
	c0.2,0.6,0.5,1.2,0.9,1.8c0.4,0.5,0.9,1,1.6,1.3c0.7,0.4,1.5,0.5,2.5,0.5c1,0,1.8-0.2,2.5-0.5c0.7-0.3,1.2-0.8,1.6-1.3
	c0.4-0.5,0.7-1.1,0.9-1.8c0.2-0.6,0.3-1.2,0.3-1.8V17.2h4.1L90.6,32.1L90.6,32.1z"/>
<path class="st2" d="M106.3,22.2c-0.4-0.6-1-1.1-1.8-1.4c-0.7-0.3-1.5-0.4-2.3-0.4c-0.5,0-0.9,0.1-1.4,0.2c-0.5,0.1-0.9,0.3-1.2,0.5
	c-0.4,0.2-0.7,0.6-0.9,1c-0.2,0.4-0.3,0.8-0.3,1.4c0,0.8,0.3,1.4,0.8,1.8c0.5,0.4,1.2,0.8,2,1.1c0.8,0.3,1.7,0.6,2.7,0.9
	c1,0.3,1.8,0.7,2.7,1.2c0.8,0.5,1.5,1.2,2,2c0.5,0.8,0.8,2,0.8,3.4c0,1.3-0.2,2.4-0.7,3.3c-0.5,1-1.1,1.7-1.9,2.4s-1.7,1.1-2.7,1.4
	c-1,0.3-2.1,0.5-3.2,0.5c-1.4,0-2.9-0.2-4.2-0.7c-1.3-0.5-2.5-1.3-3.5-2.5l3.1-3.1c0.5,0.8,1.2,1.4,2,1.8c0.8,0.4,1.7,0.6,2.6,0.6
	c0.5,0,1-0.1,1.4-0.2c0.5-0.1,0.9-0.3,1.3-0.6c0.4-0.3,0.7-0.6,0.9-1c0.2-0.4,0.4-0.9,0.4-1.4c0-0.9-0.3-1.5-0.8-2
	c-0.5-0.5-1.2-0.9-2-1.2c-0.8-0.3-1.7-0.6-2.7-0.9c-1-0.3-1.9-0.7-2.7-1.2c-0.8-0.5-1.5-1.2-2-2s-0.8-2-0.8-3.4
	c0-1.2,0.2-2.3,0.7-3.2c0.5-0.9,1.1-1.6,2-2.2c0.8-0.6,1.7-1,2.7-1.3c1-0.3,2.1-0.4,3.2-0.4c1.2,0,2.4,0.2,3.6,0.6
	c1.1,0.4,2.2,1,3.1,1.9L106.3,22.2z"/>
<path class="st2" d="M113,17.2h7.8c1.1,0,2.2,0.1,3.2,0.3c1,0.2,2,0.6,2.7,1.1c0.8,0.5,1.4,1.2,1.9,2.1c0.5,0.9,0.7,2,0.7,3.3
	c0,1.5-0.3,2.7-0.8,3.6c-0.5,0.9-1.2,1.6-2,2.1c-0.9,0.5-1.8,0.8-3,1c-1.1,0.2-2.3,0.3-3.5,0.3h-3v9.8h-4.1L113,17.2L113,17.2z
	 M119.6,27.4c0.6,0,1.2,0,1.8-0.1c0.6,0,1.2-0.2,1.8-0.4c0.5-0.2,1-0.6,1.3-1c0.3-0.4,0.5-1.1,0.5-1.9c0-0.7-0.2-1.3-0.5-1.8
	c-0.3-0.4-0.7-0.8-1.2-1c-0.5-0.2-1-0.4-1.6-0.4c-0.6-0.1-1.2-0.1-1.7-0.1h-3v6.7H119.6z"/>
<path class="st2" d="M137.3,17.2h3.6l10,23.7h-4.7l-2.2-5.4H134l-2.1,5.4h-4.6L137.3,17.2z M142.6,31.8l-3.6-9.6l-3.6,9.6H142.6z"/>
<path class="st2" d="M156,30.7l-8.8-13.6h5.2l5.7,9.4l5.8-9.4h4.9l-8.8,13.6v10.1H156V30.7z"/>
</svg>
